<svg aria-hidden="true" style="width:0;height:0;position:absolute;overflow:hidden" xmlns="http://www.w3.org/2000/svg"><defs><symbol id="search" viewBox="0 0 32 32"><path d="M13.44 1.92C7.437 1.92 2.56 6.798 2.56 12.8s4.878 10.88 10.88 10.88c2.375 0 4.57-.765 6.36-2.06l8.42 8.4 1.8-1.8-8.32-8.34a10.832 10.832 0 0 0 2.62-7.08c0-6.003-4.878-10.88-10.88-10.88zm0 1.28c5.31 0 9.6 4.29 9.6 9.6s-4.29 9.6-9.6 9.6-9.6-4.29-9.6-9.6 4.29-9.6 9.6-9.6z"/></symbol><symbol id="close" viewBox="0 0 32 32"><path d="m17.88 16 8.4-8.387a1.339 1.339 0 0 0-1.894-1.894l-8.387 8.4-8.387-8.4a1.339 1.339 0 0 0-1.894 1.894l8.4 8.387-8.4 8.387a1.333 1.333 0 0 0 0 1.894 1.333 1.333 0 0 0 1.894 0l8.387-8.4 8.387 8.4a1.333 1.333 0 0 0 1.894 0 1.333 1.333 0 0 0 0-1.894z"/></symbol><symbol id="heart" viewBox="0 0 34 32"><path fill="#b92f2c" style="fill:var(--color1,#b92f2c)" d="m17.231 31.705-2.412-2.412C5.859 21.367.001 16.025.001 9.478.001 4.136 4.136.001 9.478.001c2.929 0 5.858 1.378 7.754 3.618 1.895-2.24 4.825-3.618 7.754-3.618 5.342 0 9.477 4.135 9.477 9.477 0 6.548-5.858 11.889-14.818 19.815l-2.412 2.412z"/></symbol><symbol id="clapperboard" viewBox="0 0 32 32"><path d="M6.861 13.529a3.03 3.03 0 0 0-.493-1.333l23.413-7.817L28.552.698A1.02 1.02 0 0 0 27.26.053L1.792 8.556a1.02 1.02 0 0 0-.645 1.292l.603 1.805a3.047 3.047 0 0 0-.979 2.239c0 1.145.633 2.144 1.567 2.667v14.42c0 .564.458 1.021 1.021 1.021h26.85c.563 0 1.021-.457 1.021-1.021v-17.45H6.862zM21.784 3.082l3.1-1.035-.746 3.015-3.1 1.035.746-3.015zm-7.659 2.557 3.1-1.035-.746 3.015-3.1 1.035.746-3.015zm-10.298 9.81c-.858 0-1.557-.698-1.557-1.557s.699-1.557 1.557-1.557a1.558 1.558 0 0 1 0 3.114zm2.64-7.253 3.1-1.035-.746 3.015-3.1 1.035.746-3.015zm3.046 8.781H6.245l1.662-2.623h3.268l-1.662 2.623zm6.467-2.624h3.268l-1.662 2.623h-3.268l1.662-2.623zm-.802 12.679v-6.92l5.511 3.46-5.511 3.46zM25.66 16.977h-3.268l1.662-2.623h3.268l-1.662 2.623z"/></symbol><symbol id="glasses" viewBox="0 0 32 32"><path d="M31.894 16.288c-.063-.322-.282-1.15-.997-2.377-1.856-3.182-5.718-8.727-8.056-9.751-3.1-1.357-6.954 2.289-5.762 4.102s2.907-.9 4.867.549c1.208.893 2.414 3.581 3.161 5.513H6.936c.748-1.932 1.954-4.621 3.161-5.513 1.96-1.449 3.674 1.264 4.867-.549S12.302 2.803 9.202 4.16c-2.339 1.024-6.2 6.569-8.056 9.751-.524.898-.781 1.582-.907 2.011-.154.34-.24.717-.24 1.114v8.386a2.715 2.715 0 0 0 2.712 2.712l7.764-.001c.327 0 .641-.101.906-.293l4.714-3.406 4.495 3.39c.267.201.598.312.932.312h7.764a2.717 2.717 0 0 0 2.712-2.714v-8.386c0-.26-.038-.511-.106-.749zm-2.989 8.753-6.863-.001-4.994-3.766a1.56 1.56 0 0 0-.932-.312c-.327 0-.641.101-.906.293l-5.235 3.782-6.88.001v-7.62h25.81v7.622z"/><path d="M12.266 18.672h-.011l-8.31.004v5.409l5.417-.001 4.466-3.227c-.152-1.959-1.124-2.185-1.561-2.185zM19.734 18.697c-.438 0-1.409.226-1.561 2.185l4.467 3.227 5.417.001v-5.409l-8.322-.004zm7.584 4.675-4.441-.001-3.92-2.833c.083-.48.278-1.075.742-1.104l7.619.003v3.934z"/></symbol></defs></svg>