<svg aria-hidden="true" style="position: absolute; width: 0; height: 0; overflow: hidden;" version="1.1" xmlns="http://www.w3.org/2000/svg" xmlns:xlink="http://www.w3.org/1999/xlink">
<defs>

<symbol id="search" viewBox="0 0 32 32">
<path d="M13.44 1.92c-6.003 0-10.88 4.878-10.88 10.88s4.878 10.88 10.88 10.88c2.375 0 4.57-0.765 6.36-2.060l8.42 8.4 1.8-1.8-8.32-8.34c1.635-1.905 2.62-4.378 2.62-7.080 0-6.003-4.878-10.88-10.88-10.88zM13.44 3.2c5.31 0 9.6 4.29 9.6 9.6s-4.29 9.6-9.6 9.6c-5.31 0-9.6-4.29-9.6-9.6s4.29-9.6 9.6-9.6z"></path>
</symbol>

 <symbol id="close" viewBox="0 0 32 32">
<path d="M17.88 16l8.4-8.387c0.242-0.242 0.392-0.577 0.392-0.947 0-0.739-0.599-1.339-1.339-1.339-0.37 0-0.704 0.15-0.947 0.392v0l-8.387 8.4-8.387-8.4c-0.242-0.242-0.577-0.392-0.947-0.392-0.739 0-1.339 0.599-1.339 1.339 0 0.37 0.15 0.704 0.392 0.947v0l8.4 8.387-8.4 8.387c-0.244 0.242-0.394 0.577-0.394 0.947s0.151 0.705 0.394 0.947l0 0c0.242 0.244 0.577 0.394 0.947 0.394s0.705-0.151 0.947-0.394l0-0 8.387-8.4 8.387 8.4c0.242 0.244 0.577 0.394 0.947 0.394s0.705-0.151 0.947-0.394l0-0c0.244-0.242 0.394-0.577 0.394-0.947s-0.151-0.705-0.394-0.947l-0-0z"></path>
</symbol>

<symbol id="heart" viewBox="0 0 34 32">
<path fill="#b92f2c" style="fill: var(--color1, #b92f2c)" d="M17.231 31.705l-2.412-2.412c-8.96-7.926-14.818-13.268-14.818-19.815 0-5.342 4.135-9.477 9.477-9.477 2.929 0 5.858 1.378 7.754 3.618 1.895-2.24 4.825-3.618 7.754-3.618 5.342 0 9.477 4.135 9.477 9.477 0 6.548-5.858 11.889-14.818 19.815l-2.412 2.412z"></path>
</symbol>

<symbol id="clapperboard" viewBox="0 0 32 32">
<path d="M6.861 13.529c-0.058-0.489-0.231-0.942-0.493-1.333l23.413-7.817-1.229-3.681c-0.179-0.535-0.757-0.824-1.292-0.645l-25.468 8.503c-0.535 0.178-0.824 0.757-0.645 1.292l0.603 1.805c-0.602 0.559-0.979 1.355-0.979 2.239 0 1.145 0.633 2.144 1.567 2.667v14.42c0 0.564 0.458 1.021 1.021 1.021h26.85c0.563 0 1.021-0.457 1.021-1.021v-17.45h-24.368zM21.784 3.082l3.1-1.035-0.746 3.015-3.1 1.035 0.746-3.015zM14.125 5.639l3.1-1.035-0.746 3.015-3.1 1.035 0.746-3.015zM3.827 15.449c-0.858 0-1.557-0.698-1.557-1.557s0.699-1.557 1.557-1.557c0.859 0 1.557 0.698 1.557 1.557s-0.699 1.557-1.557 1.557zM6.467 8.196l3.1-1.035-0.746 3.015-3.1 1.035 0.746-3.015zM9.513 16.977h-3.268l1.662-2.623h3.268l-1.662 2.623zM15.98 14.353h3.268l-1.662 2.623h-3.268l1.662-2.623zM15.178 27.032v-6.92l5.511 3.46-5.511 3.46zM25.66 16.977h-3.268l1.662-2.623h3.268l-1.662 2.623z"></path>
</symbol>

<symbol id="glasses" viewBox="0 0 32 32">
<path d="M31.894 16.288c-0.063-0.322-0.282-1.15-0.997-2.377-1.856-3.182-5.718-8.727-8.056-9.751-3.1-1.357-6.954 2.289-5.762 4.102s2.907-0.9 4.867 0.549c1.208 0.893 2.414 3.581 3.161 5.513h-18.171c0.748-1.932 1.954-4.621 3.161-5.513 1.96-1.449 3.674 1.264 4.867-0.549s-2.662-5.459-5.762-4.102c-2.339 1.024-6.2 6.569-8.056 9.751-0.524 0.898-0.781 1.582-0.907 2.011-0.154 0.34-0.24 0.717-0.24 1.114v8.386c0 1.496 1.217 2.712 2.712 2.712l7.764-0.001c0.327 0 0.641-0.101 0.906-0.293l4.714-3.406 4.495 3.39c0.267 0.201 0.598 0.312 0.932 0.312l7.764 0c1.495 0 2.712-1.218 2.712-2.714v-8.386c-0-0.26-0.038-0.511-0.106-0.749zM28.905 25.041l-6.863-0.001-4.994-3.766c-0.267-0.201-0.598-0.312-0.932-0.312-0.327 0-0.641 0.101-0.906 0.293l-5.235 3.782-6.88 0.001v-7.62h25.81l0 7.622z"></path>
<path d="M12.266 18.672c-0.004 0-0.008 0-0.011 0l-8.31 0.004v5.409l5.417-0.001 4.466-3.227c-0.152-1.959-1.124-2.185-1.561-2.185z"></path>
<path d="M19.734 18.697c-0.438 0-1.409 0.226-1.561 2.185l4.467 3.227 5.417 0.001v-5.409c0-0-8.318-0.004-8.322-0.004zM27.318 23.372l-4.441-0.001-3.92-2.833c0.083-0.48 0.278-1.075 0.742-1.104l7.619 0.003v3.934z"></path>
</symbol>
</defs>
</svg>
